<svg id="Layer_2" data-name="Layer 2" xmlns="http://www.w3.org/2000/svg" width="156.352" height="67.889" viewBox="0 0 156.352 67.889">
  <g id="Layer_1" data-name="Layer 1" transform="translate(0 0)">
    <path id="Path_87" data-name="Path 87" d="M64.208,19.173A94.074,94.074,0,0,1,86.441,7.7q-.007.556-.068,1.109a8.3,8.3,0,0,1-2.3,4.221,26.408,26.408,0,0,1-6.3,4.93c-2.035,1.167-4.042,2.4-6.064,3.59-1.8,1.063-3.616,2.084-5.386,3.183a17.371,17.371,0,0,0-4.335,3.218,5.938,5.938,0,0,0-1.665,4.932c.048.318-.123.674-.1,1.053.065-.077.136-.155.225-.265a11.688,11.688,0,0,0,4.4,5.733q4.587,3.55,9.129,7.166c2.515,1.99,5.047,3.952,7.51,6.017a59.234,59.234,0,0,1,9.594,9.758,14.775,14.775,0,0,1,2.442,4.56,5.353,5.353,0,0,1,.093.54c-.419-.207-.727-.346-1.023-.509q-4.649-2.557-9.3-5.124C82.2,61.2,81.112,60.556,79.99,60c-1.619-.808-3.274-1.533-4.9-2.334s-3.257-1.648-4.868-2.5c-1.981-1.039-3.987-2.029-5.918-3.165a35.378,35.378,0,0,1-8.919-7.018,19.027,19.027,0,0,1-4.284-7.89,19.49,19.49,0,0,1-.273-9.748,25.167,25.167,0,0,1,2.182-5.552,37.332,37.332,0,0,1,4.365-6.363c1.249-1.507,2.622-2.9,4.006-4.272A80.487,80.487,0,0,1,72.655,1.931q1.337-.909,2.68-1.8c.359-.241.582-.146.638.312a3.962,3.962,0,0,1-.022,1.085,13.571,13.571,0,0,1-2.267,5.361c-1.384,2.064-2.814,4.1-4.347,6.042-1.5,1.9-3.152,3.647-4.734,5.469-.18.206-.334.438-.5.656Z" transform="translate(-43.464 -0.001)" fill="#f7f7f7"/>
    <path id="Path_88" data-name="Path 88" d="M438.047,77.508c-2.421,0-4.842.029-7.262-.012a6.077,6.077,0,0,1-3.994-1.549,8.562,8.562,0,0,1-2.592-3.562c-.1-.28-.265-.315-.528-.21q-1.446.583-2.908,1.106a2.227,2.227,0,0,1-.706.074c-.8.007-1.6.01-2.4,0a7.694,7.694,0,0,1-6.9-4.989,7.865,7.865,0,0,1,.089-6.141,7.624,7.624,0,0,1,3.4-3.766,14.587,14.587,0,0,1,3.774-1.413,1.807,1.807,0,0,1,.409-.018c2.778,0,5.558.009,8.337-.009.409,0,.525.125.522.556-.016,2.626-.008,5.251-.008,7.877,0,1.327-.008,2.655,0,3.982a4.173,4.173,0,0,0,1.985,3.673,3.334,3.334,0,0,0,1.691.49c4.7.038,9.412.057,14.115,0,2.015-.023,3.195-.961,3.849-3a3.806,3.806,0,0,0,.111-1.133c.008-2.917-.012-5.835.012-8.752a3.37,3.37,0,0,1,.827-2.389,3.933,3.933,0,0,1,2.528-1.154c.093-.01.273.146.3.263a2.806,2.806,0,0,1,.055.7c0,3.555.016,7.11,0,10.664A9.2,9.2,0,0,1,452,72.884a7.869,7.869,0,0,1-4.85,4.31,6.923,6.923,0,0,1-1.91.3C442.855,77.527,440.451,77.507,438.047,77.508Zm-18.414-16.3v.02H418a3.6,3.6,0,0,0-2,.522,4.228,4.228,0,0,0-1.773,4.878,3.64,3.64,0,0,0,2.36,2.6,8.455,8.455,0,0,0,4.284.073,3.91,3.91,0,0,0,2.679-3.089c.115-1.5.07-3.022.087-4.534,0-.328-.136-.478-.479-.474-1.173.019-2.348.007-3.522.007Z" transform="translate(-354.225 -48.703)" fill="#f7f7f7"/>
    <path id="Path_89" data-name="Path 89" d="M854.1,56.91c.018.265.039.438.039.614V69.172a7.9,7.9,0,0,1-4.451,7.463,6.668,6.668,0,0,1-2.893.744c-4.039.08-8.081.05-12.119.028a6.381,6.381,0,0,1-4.865-2.248c-.576-.64-.591-.648-1.187-.019a6.973,6.973,0,0,1-5.2,2.261c-4.875.029-9.75.01-14.625.009h-.106c-.763-.025-.731-.02-.623-.834a3.257,3.257,0,0,1,2.369-2.942,4.153,4.153,0,0,1,1.213-.114c3.784-.009,7.569,0,11.353-.016a4.063,4.063,0,0,0,3.261-1.241,3.949,3.949,0,0,0,1.091-2.617c.044-1.8.063-3.612,0-5.413a3.49,3.49,0,0,0-3.274-3.4c-1.753-.077-3.511,0-5.267-.031a3.2,3.2,0,0,1-2.95-3.254c0-.407.149-.546.514-.544,2.558.009,5.115-.028,7.671.019a6.334,6.334,0,0,1,4.7,2.042,7.484,7.484,0,0,1,2,4.436q.247,2.794.229,5.6a4.6,4.6,0,0,0,1.926,3.87,3.06,3.06,0,0,0,1.728.525c4.006.044,8.012.079,12.017,0a3.962,3.962,0,0,0,3.819-4.23c.014-2.771-.011-5.543,0-8.314a8.228,8.228,0,0,1,.225-1.721,2.506,2.506,0,0,1,1.364-1.616A12.578,12.578,0,0,1,854.1,56.91Z" transform="translate(-697.797 -48.609)" fill="#f7f7f7"/>
    <path id="Path_90" data-name="Path 90" d="M425.061,239.206a20.863,20.863,0,0,1,2,1.3,7.947,7.947,0,0,1,2.965,7.537,7.841,7.841,0,0,1-4.148,6.189,5.849,5.849,0,0,1-2.974.831c-.921-.015-1.846.06-2.761-.016a7.231,7.231,0,0,1-5.183-2.68,7.656,7.656,0,0,1-1.678-3.355,12.137,12.137,0,0,1-.262-2.315c-.019-6.507,0-13.016-.022-19.523,0-.544.119-.729.649-.713,1.687.034,3.376-.039,5.062.019a7.347,7.347,0,0,1,6.349,3.7,8.337,8.337,0,0,1,.649,7.643c-.093.251-.211.489-.325.729S425.17,238.99,425.061,239.206ZM416.666,245h-.035c.049.853.068,1.71.151,2.558a3.821,3.821,0,0,0,2.818,3.407,13.675,13.675,0,0,0,2.635.181,3.721,3.721,0,0,0,3.608-2.28,4.267,4.267,0,0,0-.237-4.4,3.519,3.519,0,0,0-3.32-1.721c-1.661.08-3.332-.031-5-.085-.419-.013-.614.158-.621.583C416.658,243.829,416.666,244.412,416.666,245Zm-.01-10.335h.007v3.6c0,.316.044.62.4.639a6.759,6.759,0,0,0,3.166-.337,4.053,4.053,0,0,0,2.455-3.4,4.448,4.448,0,0,0-2.375-4.461,7.755,7.755,0,0,0-2.971-.33c-.569-.035-.682.108-.682.729C416.654,232.294,416.657,233.477,416.657,234.661Z" transform="translate(-356.665 -193.426)" fill="#f7f7f7"/>
    <path id="Path_91" data-name="Path 91" d="M682.9,237.482c0,3.3.042,6.6-.016,9.9a8.221,8.221,0,0,1-2.233,5.56,7.255,7.255,0,0,1-3.93,2.271,6.722,6.722,0,0,1-3.683-.235,7.986,7.986,0,0,1-4.278-3.686,7.086,7.086,0,0,1-.936-3.133,8.909,8.909,0,0,1,.629-4.312,8.306,8.306,0,0,1,3.922-4.043,6.742,6.742,0,0,1,3.319-.662c.955.022,1.91,0,2.864,0,.638,0,.711-.076.712-.744,0-2.661.041-5.323-.008-7.982a3.7,3.7,0,0,1,3.286-3.7c.284-.025.363.108.36.376v1.53Q682.9,233.054,682.9,237.482Zm-3.627,7.941c0-.583-.02-1.167.007-1.75.022-.492-.147-.687-.618-.675-1.073.025-2.148.045-3.22,0a3.5,3.5,0,0,0-2.845,1.336,4.331,4.331,0,0,0-1.039,3.426,4.4,4.4,0,0,0,1.456,2.713,3.652,3.652,0,0,0,5.865-1.556A9.26,9.26,0,0,0,679.278,245.423Z" transform="translate(-576.713 -193.641)" fill="#f7f7f7"/>
    <path id="Path_92" data-name="Path 92" d="M934.916,311.07v11.742c0,1.257.015,2.521-.079,3.771a7.451,7.451,0,0,1-2.624,5.12,6.549,6.549,0,0,1-3.41,1.726,11.675,11.675,0,0,1-1.575.146c-1.6.018-3.205.01-4.808,0-.777,0-.852-.159-.584-.954a3.8,3.8,0,0,1,2.833-2.569,16.393,16.393,0,0,1,3.028-.338,3.611,3.611,0,0,0,2.848-1.672,2.011,2.011,0,0,0,.173-.528,2.258,2.258,0,0,0-.475-.124c-.528-.025-1.057-.029-1.585-.034-3.137-.029-6.148-2.983-6.726-5.877a15.5,15.5,0,0,1-.325-2.745c-.044-2.278-.011-4.558-.008-6.837,0-.68.037-.713.666-.693a3.4,3.4,0,0,1,2.728,2.232,6.815,6.815,0,0,1,.289,1.75c.04,1.365.011,2.734,0,4.1a3.927,3.927,0,0,0,2.806,4.057,11.435,11.435,0,0,0,2.9.092c.1,0,.288-.3.289-.459q.012-3.965-.019-7.929a3.738,3.738,0,0,1,1.989-3.581A7.458,7.458,0,0,1,934.916,311.07Z" transform="translate(-795.879 -265.695)" fill="#f7f7f7"/>
    <path id="Path_93" data-name="Path 93" d="M1046.121,327.757c-1.158,0-2.319.05-3.475-.01a7.176,7.176,0,0,1-5.335-2.872,8,8,0,0,1-1.773-4.649,8.281,8.281,0,0,1,1.139-4.828,7.2,7.2,0,0,1,3.557-3.216,6.852,6.852,0,0,1,7.454,1.133,7.761,7.761,0,0,1,2.57,3.9,9.656,9.656,0,0,1,.334,2.3c.044,2.57.016,5.14.03,7.711,0,.41-.145.538-.514.535-1.329-.016-2.658,0-3.988,0Zm.858-6.357c0-.492.025-.985,0-1.473a8.028,8.028,0,0,0-.194-1.44,3.649,3.649,0,0,0-4.946-2.672,4.378,4.378,0,0,0-1.792,6.383,3.258,3.258,0,0,0,2.592,1.714q2.013.06,4.029.048c.108,0,.3-.276.3-.43.027-.709.008-1.419.008-2.127Z" transform="translate(-894.27 -266.12)" fill="#f7f7f7"/>
    <path id="Path_94" data-name="Path 94" d="M806.086,328.007c-1.108,0-2.215.022-3.323,0a7.15,7.15,0,0,1-5.509-2.855,8.126,8.126,0,0,1-1.781-6.174,7.832,7.832,0,0,1,1.938-4.428,7.417,7.417,0,0,1,3.433-2.357c3.956-1.192,7.638.855,9.206,4.814a7.928,7.928,0,0,1,.462,2.656c.063,2.586.016,5.175.037,7.763,0,.474-.169.583-.571.583C808.678,328,807.382,328.007,806.086,328.007Zm.863-6.189h0c0-.583-.022-1.167,0-1.75a4.332,4.332,0,0,0-2.942-4.178,3.694,3.694,0,0,0-4.207,2.02,4.506,4.506,0,0,0,.273,4.677,3.2,3.2,0,0,0,2.046,1.5c1.453.146,2.922.093,4.383.13.323.007.46-.137.451-.493C806.939,323.09,806.95,322.454,806.95,321.818Z" transform="translate(-686.925 -266.366)" fill="#f7f7f7"/>
    <path id="Path_95" data-name="Path 95" d="M563.8,328.043c-.835,0-1.671.025-2.506,0-3.274-.114-6.386-3.046-7-6.35a8.125,8.125,0,0,1,2.537-7.808,7.023,7.023,0,0,1,4.794-1.984c1.738-.045,3.478,0,5.217-.022.409,0,.582.134.561.6-.1,1.981-.117,3.968-.273,5.941a2.665,2.665,0,0,1-2.107,2.461,29.263,29.263,0,0,1-6,.392,3.731,3.731,0,0,0-.81.178,5.135,5.135,0,0,0,.33.775,3.712,3.712,0,0,0,3.467,1.968,17.459,17.459,0,0,1,3.137.324,3.018,3.018,0,0,1,2.271,3.012c0,.408-.136.56-.5.553-.529-.012-1.057,0-1.586,0H563.8Zm-2.787-9.481h0c.75,0,1.5.013,2.251,0,.843-.019,1.242-.464,1.26-1.362,0-.328,0-.656.009-.985,0-.407-.225-.543-.558-.538-.626.007-1.252.053-1.877.038a3.789,3.789,0,0,0-3.641,2.149c-.284.519-.192.688.356.7.734,0,1.466,0,2.2,0Z" transform="translate(-478.538 -266.387)" fill="#f7f7f7"/>
    <path id="Path_96" data-name="Path 96" d="M751.129,17.046V5.018c0-2.4,1.427-3.111,3.212-3.482.273-.057.387.079.389.4q.01,11.369.045,22.739a5.36,5.36,0,0,1-1.543,4.058,8.494,8.494,0,0,1-1.734,1.1c-.288.165-.36-.079-.37-.319-.016-.419-.019-.837-.019-1.257V17.046Z" transform="translate(-648.657 -1.301)" fill="#f7f7f7"/>
    <path id="Path_97" data-name="Path 97" d="M9.653,70.029A5,5,0,0,1,4.784,75.2a4.829,4.829,0,0,1-4.79-5A5.078,5.078,0,0,1,4.88,65,4.814,4.814,0,0,1,9.653,70.029Z" transform="translate(0.007 -55.518)" fill="#f7f7f7"/>
    <path id="Path_98" data-name="Path 98" d="M1036.873,216.913a1.724,1.724,0,0,1-1.886-1.8,1.831,1.831,0,0,1,1.945-1.956,1.767,1.767,0,0,1,1.306.56,2.023,2.023,0,0,1,.547,1.386A1.828,1.828,0,0,1,1036.873,216.913Z" transform="translate(-893.812 -182.066)" fill="#f7f7f7"/>
    <path id="Path_99" data-name="Path 99" d="M626.721,214.736a1.809,1.809,0,1,1-3.612-.083,1.984,1.984,0,0,1,1.773-1.879A1.948,1.948,0,0,1,626.721,214.736Z" transform="translate(-538.115 -181.737)" fill="#f7f7f7"/>
    <path id="Path_100" data-name="Path 100" d="M481.3,3.29a1.884,1.884,0,0,1-1.807,1.9,2.049,2.049,0,0,1-1.814-1.993,1.932,1.932,0,0,1,1.826-1.877A1.821,1.821,0,0,1,481.3,3.29Z" transform="translate(-412.522 -1.122)" fill="#f7f7f7"/>
    <path id="Path_101" data-name="Path 101" d="M441.149,1.346a1.753,1.753,0,0,1,1.781,1.915,1.925,1.925,0,0,1-1.773,1.955c-.818.077-1.8-1.021-1.81-1.946a1.95,1.95,0,0,1,.515-1.375,1.7,1.7,0,0,1,1.287-.549Z" transform="translate(-379.418 -1.149)" fill="#f7f7f7"/>
    <path id="Path_102" data-name="Path 102" d="M588.265,214.85a1.9,1.9,0,0,1-.5,1.328,1.657,1.657,0,0,1-1.242.536,1.833,1.833,0,0,1-1.822-1.785,1.872,1.872,0,0,1,1.825-2.02,1.721,1.721,0,0,1,1.248.584A1.97,1.97,0,0,1,588.265,214.85Z" transform="translate(-504.945 -181.853)" fill="#f7f7f7"/>
  </g>
</svg>
