<svg id="Layer_2" data-name="Layer 2" xmlns="http://www.w3.org/2000/svg" width="283.626" height="67.666" viewBox="0 0 283.626 67.666">
  <g id="Layer_1" data-name="Layer 1" transform="translate(0)">
    <path id="Path_78" data-name="Path 78" d="M141.806,0q63.53,0,127.058.032a22.606,22.606,0,0,1,6.415.826,11.6,11.6,0,0,1,8.283,11.184c.061,7.439.025,14.883.025,22.323,0,7.081.106,14.165-.049,21.244a11.356,11.356,0,0,1-7.527,10.923,21,21,0,0,1-4.45,1.027,16.07,16.07,0,0,1-2.7.1H14.743a16.948,16.948,0,0,1-8.171-1.566A11.413,11.413,0,0,1,.063,55.615C-.054,46.34.02,37.065.02,27.79c0-5.285-.043-10.569.025-15.854A11.843,11.843,0,0,1,8.1.893,18.655,18.655,0,0,1,14.741,0Zm0,62.039h127.27c.675,0,1.351,0,2.026-.032a6.406,6.406,0,0,0,6.289-5.177,11.426,11.426,0,0,0,.176-2.355q.018-20.649,0-41.3c0-.431,0-.863-.018-1.294a6.188,6.188,0,0,0-5.267-6.014,16.731,16.731,0,0,0-3.239-.235Q141.786,5.608,14.518,5.608c-.714,0-1.427,0-2.138.045A6.375,6.375,0,0,0,6.2,10.83a11.585,11.585,0,0,0-.171,2.355q-.018,20.22,0,40.437c0,.718-.014,1.439.018,2.157A6.2,6.2,0,0,0,11.313,61.8a15.437,15.437,0,0,0,3.014.229Q78.067,62.045,141.806,62.039Z" transform="translate(0.003)" fill="#f7f7f7"/>
    <path id="Path_79" data-name="Path 79" d="M104.3,100.389l4.986,7.629c.191-.483.329-.787.432-1.1q4.621-14.066,9.229-28.138a1.468,1.468,0,0,1,1.708-1.2c4.727.058,9.454.035,14.181.015.675,0,1.071.091,1.31.82q5.341,16.393,10.748,32.752c.043.132.072.265.14.513-.419.028-.774.069-1.125.069-2.962,0-5.927-.022-8.889.022-.795,0-1.22-.179-1.434-.962-.263-.964-.4-2.269-1.1-2.729-.752-.5-2.082-.216-3.163-.216-2.289-.019-4.576,0-6.865,0h-1.249c.862-2.722,1.657-5.289,2.519-7.836.081-.233.61-.455.936-.464,1.677-.047,3.356-.022,5.218-.022l-4.277-13.229h-.277l-1.675,5.28c-2.026,6.387-4.052,12.769-6.023,19.169-.254.83-.642,1.022-1.481,1.018q-9-.052-18.007,0a1.622,1.622,0,0,1-1.648-.96c-1.207-2.189-2.528-4.325-3.7-6.529-.5-.947-1.085-1.5-2.24-1.283a2.246,2.246,0,0,1-.592-.067V95.266c.963,0,1.92.043,2.872,0a4.472,4.472,0,0,0,.191-8.919c-1.826-.127-3.667-.026-5.65-.026-.025.449-.07.9-.072,1.346,0,7.584-.027,15.17.025,22.754,0,1.1-.3,1.4-1.445,1.365-3.178-.078-6.361-.026-9.634-.026V77.721a1.958,1.958,0,0,1,.43-.106c6.188.041,12.38,0,18.561.192a17.279,17.279,0,0,1,5.533,1.26c5.02,1.941,7.633,6.255,7.428,11.805a10.862,10.862,0,0,1-5.033,8.945C104.928,99.983,104.683,100.141,104.3,100.389Z" transform="translate(-60.636 -60.845)" fill="#f7f7f7"/>
    <path id="Path_80" data-name="Path 80" d="M780.552,111.488c-2.766,0-5.461.026-8.153-.03-.351,0-.765-.388-1.026-.692q-6.168-7.211-12.3-14.452c-.225-.27-.473-.526-.9-.994v16.089H747.594v-3.072c.014-2.12-.45-4.389.189-6.313.633-1.887,2.4-3.423,3.674-5.112,1.157-1.536,2.316-3.067,3.619-4.795h-7.408V77.343c1.519,0,3.043-.015,4.569,0,1.576.022,3.345-.354,4.637.235,1.258.572,2.026,2.14,2.991,3.283q4.7,5.576,9.391,11.158c.185.216.387.431.835.927V77.408h10.46Z" transform="translate(-579.199 -60.583)" fill="#f7f7f7"/>
    <path id="Path_81" data-name="Path 81" d="M899.43,111.766c.99-3,1.9-5.763,2.811-8.529q4.052-12.314,8.088-24.639a1.2,1.2,0,0,1,1.389-1q7.2.058,14.406,0c.747,0,1.11.166,1.351.9q5.245,16.078,10.552,32.139c.1.3.171.61.293,1.048-.45.03-.79.076-1.141.076-2.964,0-5.927-.017-8.889.017-.736,0-1.164-.134-1.378-.891-.279-1-.432-2.351-1.155-2.819-.785-.507-2.165-.194-3.284-.2-2.58-.013-5.157,0-7.905,0,.2-.686.344-1.225.511-1.76.545-1.754,1.153-3.492,1.621-5.263a1.486,1.486,0,0,1,1.821-1.327c1.483.11,2.982.028,4.661.028-1.463-4.53-2.877-8.9-4.378-13.535-.239.623-.407,1-.531,1.387-2.431,7.728-4.875,15.453-7.268,23.192a1.435,1.435,0,0,1-1.7,1.206c-2.809-.075-5.627-.026-8.439-.026Z" transform="translate(-696.974 -60.861)" fill="#f7f7f7"/>
    <path id="Path_82" data-name="Path 82" d="M366.856,86.341c-.554-.028-.957-.063-1.351-.063-2.325,0-4.653-.039-6.978.013-.939.022-1.335-.177-1.3-1.18.083-2.118.07-4.243,0-6.361-.027-.908.279-1.143,1.2-1.141,9.3.03,18.6.019,27.912.019h1.089V86.2h-9.393c-.032.585-.079,1.031-.081,1.48,0,7.582-.025,15.166.023,22.75,0,1.078-.268,1.409-1.432,1.378-3.169-.084-6.361-.03-9.7-.03Z" transform="translate(-276.818 -60.87)" fill="#f7f7f7"/>
    <path id="Path_83" data-name="Path 83" d="M1077.42,77.92h11.074v25.452h1.436c4.124,0,8.247.024,12.38-.019.939,0,1.22.272,1.2,1.163-.056,2.437-.02,4.875-.02,7.407h-26.07Z" transform="translate(-834.899 -61.113)" fill="#f7f7f7"/>
    <path id="Path_84" data-name="Path 84" d="M613.024,86.939h4.45a7.8,7.8,0,0,0-3.894-6.853c-3.437-2.071-6.825-1.726-10.179.617L596.75,71.86c5.758-4.051,12.011-5.274,18.656-2.983,8.648,2.987,12.914,9.266,13.589,18.058h4.365L623.185,100.36Z" transform="translate(-462.425 -53.122)" fill="#f7f7f7"/>
    <path id="Path_85" data-name="Path 85" d="M552.5,94.74l10.086,13.319h-4.369A7.775,7.775,0,0,0,562.094,115c3.428,2.081,6.823,1.726,10.185-.6l6.636,8.8c-5.641,3.984-11.768,5.244-18.307,3.087-8.83-2.91-13.211-9.2-13.906-18.177H542.38Z" transform="translate(-420.293 -74.305)" fill="#f7f7f7"/>
    <path id="Path_86" data-name="Path 86" d="M504.17,111.79V77.744a7.469,7.469,0,0,1,.855-.095c3.075,0,6.15.015,9.229-.019.761,0,1.063.181,1.049.96-.043,2.588.014,5.177-.043,7.765a2.736,2.736,0,0,1-.565,1.454c-2.008,2.731-4.052,5.429-6.1,8.14-.225.287-.419.582-.725,1.012.434.043.741.095,1.047.1,1.837,0,3.676.022,5.513,0,.621,0,.867.188.864.8q-.027,6.574,0,13.158c0,.511-.124.8-.75.8C511.13,111.79,507.733,111.79,504.17,111.79Z" transform="translate(-390.684 -60.885)" fill="#f7f7f7"/>
  </g>
</svg>
