<svg xmlns="http://www.w3.org/2000/svg" width="116.729" height="117.387" viewBox="0 0 116.729 117.387">
  <g id="Group_261" data-name="Group 261" transform="translate(-2.735)">
    <path id="Path_1412" data-name="Path 1412" d="M-62.573,308.618V293.154h-1.483c-4.059,0-8.119.018-12.178-.006a9.027,9.027,0,0,1-8.935-9.086c-.035-4.1-.027-8.2,0-12.3A4.861,4.861,0,0,0-87.9,267.1c-1.232-.66-2.461-1.328-3.678-2.017A3.959,3.959,0,0,1-93.2,259.34c1.816-3.318,3.53-6.708,5.562-9.885,1.827-2.855,2.083-5.746,1.718-9.053-1.959-17.744,5.019-34.47,21.939-43.475,16.392-8.724,32.516-7.235,47.887,3.156a5.6,5.6,0,0,1,.574.466.833.833,0,0,1,.126.226c-.516,1.073-1,2.175-1.58,3.22a1.45,1.45,0,0,1-.936.556c-2.43.44-3.141,1.161-3.4,3.653-.108,1.038-.165,2.084-.192,3.128a2.909,2.909,0,0,0,2.364,3.312,1.806,1.806,0,0,1,1.587,1.708,1.674,1.674,0,0,0,.126.483c.591,1.289.851,2.413-.277,3.712a2.679,2.679,0,0,0,.235,3.476c.82,1.043,1.678,2.06,2.575,3.035a2.809,2.809,0,0,0,3.893.526,1.72,1.72,0,0,1,2.3.056,1.617,1.617,0,0,0,.542.288,2.837,2.837,0,0,1,2.245,2.783,2.583,2.583,0,0,0,2.476,2.243c.731.1,1.467.156,2.2.22.691.06,1.384.1,2.335.174-.172.535-.194,1.112-.477,1.324-.227.169-.774-.1-1.175-.184a7.631,7.631,0,0,0-1.534-.348c-2.858-.008-5.539,4.171-4.337,6.714a2.778,2.778,0,0,1-1.234,2.963,3.171,3.171,0,0,0-2.487,3.523c-.006.753-.031,1.508.011,2.258a3.032,3.032,0,0,0,2.26,2.932A2.494,2.494,0,0,1-6.559,255.8c-.668,1.367-.565,2.178.55,3.936-.949,1.78-1.869,3.644-2.91,5.434A40.9,40.9,0,0,0-14.177,290.8c.608,5.648,1.013,11.319,1.513,16.979.022.243.082.483.144.836H-62.573Zm27.985-45.249c.161-1.125.281-2.2.474-3.259a29.748,29.748,0,0,1,6.074-12.831,16.767,16.767,0,0,0,3.131-13.948A17.429,17.429,0,0,0-39.77,219.636a16.739,16.739,0,0,0-16.864,9.723c-2.9,6.46-2.117,12.607,2.034,18.284,3.265,4.464,5.767,9.217,5.937,14.957.009.281.415.779.65.788,1.751.068,3.505.037,5.3.037V245.014c-.683.453-1.251.773-1.754,1.176a1.857,1.857,0,0,1-2.561-.021c-1.022-.765-2.1-1.449-3.175-2.144-.794-.515-1.469-1.135-.807-2.115.614-.909,1.4-.534,2.147-.027,1.02.695,2.063,1.865,3.1,1.873s2.071-1.173,3.107-1.833c.035-.022.07-.044.1-.069a1.679,1.679,0,0,1,2.247-.02c1.035.746,2.118,1.42,3.2,2.141,1.086-.723,2.151-1.423,3.207-2.137.751-.508,1.533-.8,2.131.13.565.883.006,1.482-.7,1.956-1.2.8-2.412,1.58-3.593,2.408a1.65,1.65,0,0,1-2.144-.038c-.581-.427-1.2-.8-1.875-1.249v18.325ZM-41.9,276.34c2.824,0,5.649.025,8.472-.012a1.95,1.95,0,0,0,2.029-1.918,1.913,1.913,0,0,0-1.96-1.963c-.816-.051-1.637-.019-2.455-.019q-7.061,0-14.121,0c-1.057,0-1.987.22-2.3,1.418a1.947,1.947,0,0,0,2.111,2.491C-47.381,276.363-44.639,276.343-41.9,276.34Zm0-10.329c-2.7,0-5.4-.006-8.1,0-1.512,0-2.331.708-2.308,1.947.022,1.174.847,1.881,2.263,1.883q8.162.013,16.323,0c1.5,0,2.352-.737,2.324-1.953-.027-1.165-.868-1.872-2.28-1.877C-36.411,266-39.152,266.012-41.893,266.011Zm-4.853,12.9c.363,2.06,3.126,3.591,5,3.494a5.085,5.085,0,0,0,4.753-3.494Zm31.771-40.975v0a7.476,7.476,0,0,0,2.077-.047c.487-.145,1.16-.7,1.182-1.108a1.623,1.623,0,0,0-1.041-1.222,22.5,22.5,0,0,0-4.413,0c-.39.037-1.05.8-1,1.136a1.854,1.854,0,0,0,1.115,1.185A7.055,7.055,0,0,0-14.975,237.936Zm-53.191,0v0a8.052,8.052,0,0,0,2.2-.051,1.824,1.824,0,0,0,1.115-1.177c.055-.333-.6-1.1-.985-1.14a22.507,22.507,0,0,0-4.411-.006,1.622,1.622,0,0,0-1.046,1.216c.021.407.689.957,1.176,1.116A6.54,6.54,0,0,0-68.165,237.94Zm6.437-23.112c-.888-.038-1.627,1.027-1.066,1.719a34.169,34.169,0,0,0,3.445,3.539,1.268,1.268,0,0,0,1.211-.094c.291-.219.587-.994.459-1.138-1.218-1.379-2.524-2.676-3.811-3.991C-61.535,214.817-61.647,214.838-61.728,214.828Zm41.748,1.126c-.174-.258-.329-.729-.635-.88a1.369,1.369,0,0,0-1.215-.021,40.3,40.3,0,0,0-3.363,3.463,1.393,1.393,0,0,0,.153,1.31c.25.281,1.061.481,1.26.3,1.271-1.16,2.443-2.434,3.64-3.679C-20.064,216.367-20.061,216.214-19.98,215.954Zm-20.373-6.371h-.008a9.027,9.027,0,0,0-.05-2.233,1.557,1.557,0,0,0-1.1-.992,1.488,1.488,0,0,0-1.1.979,26.339,26.339,0,0,0-.009,4.484c.034.4.721,1.091,1.033,1.05a1.74,1.74,0,0,0,1.175-1.057A8.327,8.327,0,0,0-40.353,209.583Z" transform="translate(96.566 -191.232)" fill="#cba135"/>
    <path id="Path_1413" data-name="Path 1413" d="M144.491,195.494a20.55,20.55,0,0,1,2.048,1.586,2.166,2.166,0,0,0,2.835.408A20.214,20.214,0,0,1,153.821,196a2.287,2.287,0,0,0,2.106-1.952c.572-2.573.232-2.872,3.381-2.4a1.263,1.263,0,0,0,.152.011c3.68.12,2.957-.138,3.565,3.389a2.494,2.494,0,0,0,1.166,1.476c1.579.9,3.3,1.544,4.847,2.491a2.032,2.032,0,0,0,2.459.026c2.721-1.612,2.119-1.914,4.341.689.132.154.27.3.4.456,1.72,1.942,1.767,1.983.06,3.94a2.369,2.369,0,0,0-.364,3,19.465,19.465,0,0,1,1.411,4.312,2.394,2.394,0,0,0,2.079,2.174c2.34.475,2.709.06,2.3,3.319s-.389,3.242-3.558,3.74a2.1,2.1,0,0,0-1.287.989c-.974,1.768-1.9,3.57-2.7,5.421a2.452,2.452,0,0,0,.1,1.877c1.586,2.976,1.99,2.242-.884,4.72-2.5,2.158-1.911,2.143-4.4.076a2.074,2.074,0,0,0-2.469-.318,36.538,36.538,0,0,1-4.882,1.623c-.982.259-1.7.569-1.771,1.711-.028.447-.246.879-.32,1.327a1.5,1.5,0,0,1-2.044,1.4c-.148-.031-.3-.032-.454-.05-1.2-.142-2.749.114-3.5-.543-.722-.628-.547-2.227-.912-3.352a2.25,2.25,0,0,0-1.058-1.09c-1.735-.931-3.484-1.847-5.289-2.627a2.426,2.426,0,0,0-1.87.076c-3.15,1.71-2.348,1.877-4.721-.851-2.358-2.711-2.051-1.97-.131-4.394a2.108,2.108,0,0,0,.3-2.582A16.351,16.351,0,0,1,138.4,219.8a2.574,2.574,0,0,0-2.331-2.47c-2.327-.476-2.31-.556-2.089-2.875.009-.1.019-.2.026-.3.252-3.3.258-3.267,3.454-3.832a2.322,2.322,0,0,0,1.4-1.059c.963-1.716,1.7-3.564,2.718-5.242.565-.929.184-1.492-.224-2.2-1.608-2.781-1.733-2.111.678-4.239C142.823,196.884,143.637,196.217,144.491,195.494Zm1.642,19.9a11.747,11.747,0,1,0,11.909-11.617A11.69,11.69,0,0,0,146.133,215.4Z" transform="translate(-64.783 -191.372)" fill="#cba135"/>
    <path id="Path_1414" data-name="Path 1414" d="M201.107,323.76a8.734,8.734,0,0,0-1.092,1.787,3.844,3.844,0,0,0-.129,2.031c.337,1.157,1.017,2.215,1.353,3.372.269.926.677,1.383,1.657,1.42,1.274.048,2,.54,1.956,2.058-.083,2.873.019,2.985-1.811,3.22a1.866,1.866,0,0,0-1.872,1.772,4.311,4.311,0,0,1-.578,1.562c-.983,1.556-1.536,3.042.042,4.594.186.183.07.87-.124,1.194-.279.466-.8.778-1.14,1.218-.947,1.24-1.886,1.432-3.181.379a2.583,2.583,0,0,0-2.011-.149c-1.159.331-2.22,1.006-3.379,1.337-.931.266-1.392.7-1.427,1.659-.05,1.4-.674,2.173-2.207,1.91a4.589,4.589,0,0,0-1.217,0c-1.1.111-1.761-.248-1.785-1.459a2.152,2.152,0,0,0-2.11-2.283,3.921,3.921,0,0,1-1.551-.6c-1.446-.962-2.79-1.267-4.215.095-.229.22-1.015.033-1.44-.177s-.7-.735-1.1-1.036c-1.281-.955-1.35-1.9-.338-3.177a2.811,2.811,0,0,0,.112-2.024c-.158-.724-.713-1.358-.9-2.082-.432-1.693-1.095-3-3.167-2.947-.256.007-.657-.547-.76-.907a5.526,5.526,0,0,1-.042-1.516c.017-2.624-.16-2.165,2.192-2.719a2.244,2.244,0,0,0,1.2-1.1c.4-.75.493-1.68.94-2.4.922-1.477,1.234-2.8-.124-4.217-.214-.223-.008-1.012.207-1.436s.74-.7,1.038-1.1c.958-1.3,1.905-1.335,3.167-.313a2.817,2.817,0,0,0,2.015.111c.675-.14,1.262-.674,1.935-.852,1.707-.453,3.131-1.065,3.089-3.218-.005-.266.569-.739.914-.779a22.983,22.983,0,0,1,2.891-.043c1.108.012,1.145.951,1.189,1.639a1.915,1.915,0,0,0,1.823,2.02,5.066,5.066,0,0,1,1.837.7c1.459.936,2.826,1.275,4.173-.171.151-.162.577-.319.676-.237C198.924,321.822,199.994,322.783,201.107,323.76Zm-6.789,11.351a7.6,7.6,0,0,0-7.57-7.689,7.627,7.627,0,1,0,7.57,7.689Z" transform="translate(-85.39 -277.849)" fill="#cba135"/>
  </g>
</svg>
