<svg id="Group_263" data-name="Group 263" xmlns="http://www.w3.org/2000/svg" width="102.82" height="120" viewBox="0 0 102.82 120">
  <path id="Path_1421" data-name="Path 1421" d="M-1007.253,289.275h-10.118c.89,3.7.006,6.677-3.1,8.667a6.813,6.813,0,0,1-7.892-.087c-3.02-2.019-3.834-4.951-3.013-8.457-.343-.037-.638-.1-.934-.1-3.294-.007-6.589,0-9.971,0a23.838,23.838,0,0,0,1.213,10.4c3.217,10,9.538,17.363,19.135,21.691,2.71,1.222,4.079,2.819,3.689,5.805a18.38,18.38,0,0,0-.013,2.252h-3.65c0-.909-.064-1.861.019-2.8a1.417,1.417,0,0,0-1.04-1.589c-11.587-5.276-19.054-14.085-22.235-26.4-5.583-21.615,8.884-43.939,30.893-47.763,2.233-.388,4.508-.534,6.893-.808v15.145a7.421,7.421,0,0,0-7.717,2.1,6.977,6.977,0,0,0-1.918,5.144c.165,4.69,3.7,7.176,9.712,6.807V289.32Z" transform="translate(1062.255 -230.758)" fill="#cba135"/>
  <path id="Path_1422" data-name="Path 1422" d="M-950.325,332.081h10.117c-.853-3.733-.015-6.769,3.193-8.756a6.85,6.85,0,0,1,7.9.187c2.953,2.014,3.71,4.915,2.93,8.461h15.135c-.326,2.732-.419,5.31-.965,7.788-2.866,13.01-10.366,22.372-22.464,28-.844.393-1.3.8-1.192,1.79a25.878,25.878,0,0,1,.019,2.676h-14.551v-16.1a7.482,7.482,0,0,0,7.489-1.776,7.038,7.038,0,0,0,2.2-5.334c-.059-4.745-3.6-7.291-9.762-6.925q0-5.031,0-10.051Z" transform="translate(998.111 -282.873)" fill="#cba135"/>
  <path id="Path_1423" data-name="Path 1423" d="M-916.634,241.734v-9.992c-3.8.857-6.866-.085-8.812-3.463a6.8,6.8,0,0,1,.4-7.751c2.022-2.842,4.865-3.637,8.355-2.8V203.006c18.292-1.263,39.338,15.236,39.036,38.691h-14.834c.5-5.926-2.315-9.714-7.124-9.647-4.765.066-7.459,3.784-6.961,9.685Z" transform="translate(980.421 -202.79)" fill="#cba135"/>
  <path id="Path_1424" data-name="Path 1424" d="M-985.774,454.509q9.522,0,19.044,0c3.335,0,5.264,1.948,5.275,5.3.006,1.523.026,3.047-.006,4.57a4.744,4.744,0,0,1-4.747,4.748q-19.653.035-39.307,0a4.739,4.739,0,0,1-4.733-4.759c-.031-1.625-.02-3.25,0-4.875a4.756,4.756,0,0,1,4.976-4.98C-998.774,454.5-992.274,454.509-985.774,454.509Z" transform="translate(1037.265 -368.679)" fill="#cba135"/>
  <path id="Path_1425" data-name="Path 1425" d="M-964.891,499.7h8.062c-.153,2.9.011,5.78-.524,8.522a9.313,9.313,0,0,1-9.195,7.251q-5.032.038-10.066,0a9.672,9.672,0,0,1-9.625-9.592c-.02-2.024,0-4.049,0-6.163h7.92c0,1.81.013,3.666,0,5.522a2.01,2.01,0,0,0,1.447,2.229c1.144.335,2.178-.589,2.215-2.035.048-1.871.012-3.745.012-5.712h6.093c0,1.8.013,3.653,0,5.508a2.015,2.015,0,0,0,1.437,2.236c1.15.342,2.186-.571,2.224-2.022C-964.853,503.567-964.891,501.693-964.891,499.7Z" transform="translate(1023.006 -395.487)" fill="#cba135"/>
  <path id="Path_1426" data-name="Path 1426" d="M-1074.02,271.755a16.922,16.922,0,0,1,1.639.692q3.771,2.145,7.519,4.333c1.4.82,1.805,1.839,1.122,2.836-.8,1.166-1.827,1.055-2.931.41-2.587-1.509-5.186-3-7.781-4.491a1.771,1.771,0,0,1-1.011-2.279C-1075.213,272.656-1074.511,272.244-1074.02,271.755Z" transform="translate(1083.157 -247.278)" fill="#cba135"/>
  <path id="Path_1427" data-name="Path 1427" d="M-1073.9,408.3c-.346-.342-1.215-.807-1.259-1.34a2.729,2.729,0,0,1,.873-2.151c1.876-1.29,3.912-2.35,5.89-3.493.835-.482,1.657-.995,2.524-1.41a1.571,1.571,0,0,1,2.329.687c.24.65.105,1.971-.335,2.253-2.945,1.886-6.015,3.576-9.052,5.315A3.9,3.9,0,0,1-1073.9,408.3Z" transform="translate(1082.898 -329.925)" fill="#cba135"/>
  <path id="Path_1428" data-name="Path 1428" d="M-1015.755,232.087c-.288.313-.684,1.1-1.259,1.267a2.208,2.208,0,0,1-1.975-.5c-1.837-2.918-3.582-5.9-5.168-8.962a2.374,2.374,0,0,1,.8-2.123,2.151,2.151,0,0,1,2.107.274c1.9,2.992,3.63,6.1,5.4,9.173A3.656,3.656,0,0,1-1015.755,232.087Z" transform="translate(1048.94 -213.866)" fill="#cba135"/>
  <path id="Path_1429" data-name="Path 1429" d="M-842.707,406.053c-.049,1.744-1.372,2.639-2.612,1.967-2.944-1.6-5.838-3.29-8.7-5.026a1.628,1.628,0,0,1-.534-2.4,1.663,1.663,0,0,1,2.362-.722q4.4,2.427,8.695,5.036C-843.054,405.176-842.848,405.839-842.707,406.053Z" transform="translate(937.943 -329.898)" fill="#cba135"/>
  <path id="Path_1430" data-name="Path 1430" d="M-951.088,209.386q0,2.284,0,4.568c0,1.206-.572,1.97-1.8,1.981a1.7,1.7,0,0,1-1.841-1.94c-.007-3.147,0-6.294,0-9.441,0-1.208.571-1.968,1.8-1.981a1.7,1.7,0,0,1,1.842,1.939C-951.081,206.138-951.088,207.762-951.088,209.386Z" transform="translate(1004.323 -202.574)" fill="#cba135"/>
  <path id="Path_1431" data-name="Path 1431" d="M-1087.491,342.015c1.573,0,3.147,0,4.721,0,1.211,0,1.958.6,1.956,1.826s-.757,1.817-1.965,1.818q-4.721.006-9.441,0c-1.208,0-1.959-.594-1.956-1.827s.756-1.814,1.965-1.817C-1090.638,342.011-1089.065,342.015-1087.491,342.015Z" transform="translate(1094.177 -292.395)" fill="#cba135"/>
  <path id="Path_1432" data-name="Path 1432" d="M-832.587,345.66c-1.523,0-3.046,0-4.568,0-1.2,0-1.991-.533-2.018-1.767-.028-1.318.776-1.887,2.052-1.884q4.644.01,9.289,0c1.2,0,1.991.535,2.018,1.767.029,1.316-.777,1.891-2.052,1.885C-829.44,345.655-831.014,345.66-832.587,345.66Z" transform="translate(928.633 -292.393)" fill="#cba135"/>
</svg>
