<svg id="Group_264" data-name="Group 264" xmlns="http://www.w3.org/2000/svg" width="102.514" height="120" viewBox="0 0 102.514 120">
  <path id="Path_1433" data-name="Path 1433" d="M-516.583,368.472a14.561,14.561,0,0,1-1.821-1.919c-1.7-2.571-3.3-5.2-4.952-7.8a8.462,8.462,0,0,0-7.3-4.122c-3.16-.1-6.319-.251-9.476-.422-2.545-.138-3.327-1.553-2.054-3.777,3.08-5.379,6.2-10.734,9.311-16.1q2.784-4.808,5.567-9.616c.642-1.113.554-1.253-.686-1.708a33.982,33.982,0,0,1-3.553-1.456c-2.194-1.1-2.8-3.061-2.5-5.322.272-2,.681-3.993,1.118-5.968a7.165,7.165,0,0,0-1.691-6.419c-1.217-1.474-2.434-2.95-3.609-4.457a5.417,5.417,0,0,1-.146-6.925,58.055,58.055,0,0,1,3.6-4.751,8.037,8.037,0,0,0,1.855-7.6,44.233,44.233,0,0,1-1-5.863c-.274-2.505,1-4.191,3.249-5.11a54.711,54.711,0,0,1,5.285-1.849,7.67,7.67,0,0,0,5.472-5.27c.411-1.257.874-2.5,1.351-3.734,1.638-4.244,3.567-5.252,7.977-4.234,1.82.42,3.646.82,5.48,1.172a4.323,4.323,0,0,0,3.508-.851c2.522-1.818,5.085-3.591,7.731-5.22,1.9-1.167,3.862-.736,5.6.506,1.585,1.133,3.116,2.349,4.608,3.6a7.389,7.389,0,0,0,6.868,1.628c1.966-.472,3.944-.931,5.941-1.233a4.594,4.594,0,0,1,5.493,2.942,57.372,57.372,0,0,1,2.134,5.432,7.492,7.492,0,0,0,5.25,5.029,54.539,54.539,0,0,1,5.4,1.875,4.861,4.861,0,0,1,3.268,5.776c-.25,1.692-.523,3.39-.94,5.047a8.4,8.4,0,0,0,1.663,7.682c1.352,1.713,2.627,3.492,3.861,5.292a5.239,5.239,0,0,1-.209,6.7c-1,1.294-1.981,2.622-3.1,3.815a8.252,8.252,0,0,0-2,8.109,41.4,41.4,0,0,1,.932,6.209c.16,2.025-1.052,3.376-2.772,4.232-1,.5-2.1.827-3.15,1.227-.429.163-.863.309-1.37.49,2.789,4.8,5.528,9.513,8.271,14.226q3.471,5.965,6.945,11.927a10.146,10.146,0,0,1,.656,1.239c.643,1.576-.056,2.889-1.768,3.018-3.151.237-6.311.375-9.47.469a9.074,9.074,0,0,0-5.879,1.913,10.719,10.719,0,0,0-2,2.251c-1.731,2.642-3.366,5.346-5.058,8.013-1.517,2.392-3.157,2.372-4.584-.073q-7.516-12.88-15.005-25.776c-.252-.433-.53-.852-.87-1.4-.462.34-.87.613-1.249.923-3.518,2.878-6.032,3-9.7.287-2.032-1.5-1.751-1.307-2.894.66-4.859,8.359-9.684,16.738-14.562,25.085a15.853,15.853,0,0,1-1.864,2.185Zm24.944-37.9a35.061,35.061,0,0,0,35.088-35.935,34.788,34.788,0,0,0-34.771-34.179A34.966,34.966,0,0,0-526.6,294.921,34.831,34.831,0,0,0-491.639,330.573Z" transform="translate(542.783 -248.472)" fill="#cba135"/>
  <path id="Path_1434" data-name="Path 1434" d="M-460.184,350.88c-15.505.24-29.208-13.208-29.507-28.857a29.724,29.724,0,0,1,28.264-30.632,29.758,29.758,0,0,1,30.952,30.224A29.5,29.5,0,0,1-460.184,350.88Zm-12-13.741c-.026,1.957.943,2.63,2.514,1.877,2-.957,3.926-2.061,5.9-3.073a8.141,8.141,0,0,1,7.821,0c1.938.995,3.837,2.07,5.8,3.019,1.758.853,2.777.142,2.551-1.8-.249-2.133-.619-4.254-1-6.369a8.335,8.335,0,0,1,2.575-7.876q2.095-2.046,4.179-4.1c.619-.614,1.395-1.387.895-2.212a3.391,3.391,0,0,0-2.068-1.208c-1.743-.377-3.528-.563-5.3-.787a8.689,8.689,0,0,1-7.343-5.389,52.621,52.621,0,0,0-2.46-4.924c-.375-.649-1.153-1.534-1.689-1.494-.647.047-1.427.85-1.806,1.522-1.052,1.868-1.875,3.865-2.883,5.761a7.991,7.991,0,0,1-6.015,4.343c-2.07.339-4.165.545-6.215.974a3.024,3.024,0,0,0-2.009,1.242c-.215.488.337,1.534.829,2.077,1.36,1.5,2.865,2.876,4.315,4.3a8.442,8.442,0,0,1,2.445,8.037C-471.54,333.162-471.87,335.286-472.182,337.139Z" transform="translate(511.29 -273.919)" fill="#cba135"/>
</svg>
