<svg id="Group_262" data-name="Group 262" xmlns="http://www.w3.org/2000/svg" width="156.199" height="91.221" viewBox="0 0 156.199 91.221">
  <path id="Path_1417" data-name="Path 1417" d="M669.34,337.617a4.524,4.524,0,0,1-4.262,1.982c-5.894-.063-11.788-.016-17.683-.029a4.137,4.137,0,0,1-4.227-3.034c-3.661-13.52-8.588-26.6-13.737-39.6-1.565-3.95-3.41-7.792-5.22-11.639-.97-2.061-.21-3.589,2.286-4.544a76.668,76.668,0,0,1,18.54-4.655c6.746-.785,13.547-1.084,20.322-1.63a3.7,3.7,0,0,1,3.981,2.138Z" transform="translate(-513.141 -267.978)" fill="#cba135"/>
  <path id="Path_1418" data-name="Path 1418" d="M351.75,261.072c.92-2.1,2.446-2.705,4.752-2.476,9.036.9,18.136,1.375,26.886,4.054a38.182,38.182,0,0,1,5.971,2.893,2.714,2.714,0,0,1,1.415,3.1c-.637,4.107-1.009,8.287-2.044,12.295-3.294,12.755-6.841,25.444-10.29,38.158-.159.587-.331,1.17-.47,1.762a3.218,3.218,0,0,1-3.327,2.739c-6.557.027-13.115,0-19.673.021a3.563,3.563,0,0,1-3.221-2.138Z" transform="translate(-351.75 -258.55)" fill="#cba135"/>
  <path id="Path_1419" data-name="Path 1419" d="M509.635,366.744c-1.877,2.836-4.241,3.879-7.042,3.217a4.057,4.057,0,0,1-1.727-1.143q-7.578-7.519-15.107-15.087a3.35,3.35,0,0,0-3.232-1.274,3.185,3.185,0,0,0-1.485,5.55c4.032,4.091,8.114,8.133,12.176,12.2.4.4.793.788,1.189,1.184,1.557,1.555,1.586,2.363.15,4.075a4.386,4.386,0,0,1-6.345.244c-4.145-4.122-8.251-8.284-12.415-12.387-2.019-1.989-5.077-1.245-5.489,1.421a4.258,4.258,0,0,0,1.091,3.074c2.833,3.054,5.847,5.94,8.79,8.892a3.073,3.073,0,0,1,.882,1.479A18.262,18.262,0,0,1,477,377.6a25.765,25.765,0,0,1-6.514-3.126Q456.04,363.51,441.858,352.2A59.629,59.629,0,0,1,435.776,346a1.578,1.578,0,0,1-.192-1.322,346.514,346.514,0,0,0,9.88-37.156c.086-.41.635-1.025.979-1.031,3.954-.073,7.91-.046,12.168-.046-.479.585-.772.958-1.08,1.317-3.575,4.17-6.523,8.691-7.764,14.134-1.02,4.474.546,8.485,4.068,10,5.816,2.5,11.378,2.114,16.478-1.908a3.9,3.9,0,0,0,.578-.5,12.058,12.058,0,0,1,7.421-4.42c1.121-.185,2.125-1.081,3.253-1.69,4.153,3.386,8.3,6.741,12.417,10.131,5.8,4.781,11.684,9.478,17.336,14.433a72.04,72.04,0,0,1,6.97,7.624,7.991,7.991,0,0,1,1.39,2.848,3.707,3.707,0,0,1-1.542,4.254c-1.492.759-2.873,1.146-4.61-.643-5.735-5.909-11.617-11.675-17.433-17.505-1.01-1.013-2.244-1.721-3.532-.992a5.372,5.372,0,0,0-2.116,2.52c-.482,1.182.346,2.2,1.213,3.063q8.316,8.291,16.616,16.6A12.3,12.3,0,0,0,509.635,366.744Z" transform="translate(-401.445 -286.962)" fill="#cba135"/>
  <path id="Path_1420" data-name="Path 1420" d="M555.27,342.392a5.964,5.964,0,0,1-1.025-.684c-6.492-7.645-14.339-13.793-22.045-20.112-4.911-4.027-9.651-8.264-14.45-12.426a5.451,5.451,0,0,0-5.633-1.194c-1.864.643-3.645,1.525-5.472,2.277a4.292,4.292,0,0,1-1.588.48c-2.295-.041-3.65,1.189-4.944,2.962-3.167,4.343-6.832,5.466-11.1,3.779-1.153-.456-1.86-1.153-1.536-2.394a22.26,22.26,0,0,1,1.6-4.875c3.809-7.144,9.544-12.467,16.437-16.538,4.435-2.619,9.1-1.944,13.673-.247q9.905,3.674,19.76,7.482a2.837,2.837,0,0,1,1.319,1.508c2.559,6.292,5.147,12.574,7.549,18.927,2.421,6.4,4.642,12.877,6.944,19.322C554.918,341.11,555.031,341.58,555.27,342.392Z" transform="translate(-432.222 -278.346)" fill="#cba135"/>
</svg>
