<svg xmlns="http://www.w3.org/2000/svg" width="181" height="85.35" viewBox="0 0 181 85.35">
  <g id="Layer_2" data-name="Layer 2" transform="translate(0.007 0)">
    <g id="Layer_1" data-name="Layer 1" transform="translate(-0.007 0)">
      <path id="Path_4" data-name="Path 4" d="M36.29,0A18.941,18.941,0,0,0,17.371,18.919v6.428A7.964,7.964,0,0,0,8.079,23.97c-4.257,2.243-4.215,6.2-3.536,10.135L9.649,58.371v8.936H13.73V60.2h37.4v9.822H10.538c-2.2,0-4.984,1.634-7.28,4.272-3.417,3.923-4.265,8.2-2.006,10.16a3.726,3.726,0,0,0,2.5.9,6.438,6.438,0,0,0,2.683-.667,14.377,14.377,0,0,0,4.6-3.613,15.048,15.048,0,0,0,2.67-4.252H9.135a12.813,12.813,0,0,1-1.168,1.57,8.927,8.927,0,0,1-3.9,2.837A8.827,8.827,0,0,1,6.34,76.971c1.725-1.981,3.492-2.87,4.208-2.87H55.209V18.919A18.941,18.941,0,0,0,36.29,0M51.128,56.116H13.343L8.559,33.373c-.547-3.2-.469-4.8,1.422-5.792a3.868,3.868,0,0,1,5.225,1.62l6.249,11.861V18.919a14.837,14.837,0,1,1,29.674,0Z" transform="translate(0.007 0)" fill="#f7f7f7"/>
      <path id="Path_5" data-name="Path 5" d="M437.165,95.108a4.32,4.32,0,0,0,4.317,4.317h2.351V96.7h-2.351a1.594,1.594,0,0,1-1.592-1.592v-5.28h3.935V87.1H439.89V81.37h-2.725V87.1H433.23v2.725h3.935Z" transform="translate(-360.938 -67.792)" fill="#f7f7f7"/>
      <path id="Path_6" data-name="Path 6" d="M519.867,95.961c.125-2.862.948-4.966,2.259-5.773a1.891,1.891,0,0,1,1.951-.1,2.422,2.422,0,0,1,1.115,2.226V99.45h2.725V92.321a5.143,5.143,0,0,0-2.5-4.605,4.6,4.6,0,0,0-4.711.157,5.528,5.528,0,0,0-.834.631V81.37H517.14V99.45h2.727Z" transform="translate(-430.847 -67.792)" fill="#f7f7f7"/>
      <path id="Path_7" data-name="Path 7" d="M508.5,254.448a6.174,6.174,0,1,0-6.174-6.174,6.174,6.174,0,0,0,6.174,6.174m0-9.628a3.457,3.457,0,1,1-3.457,3.457,3.457,3.457,0,0,1,3.457-3.457" transform="translate(-418.508 -201.702)" fill="#f7f7f7"/>
      <path id="Path_8" data-name="Path 8" d="M595.394,254.448a6.174,6.174,0,1,0-6.174-6.174,6.174,6.174,0,0,0,6.174,6.174m0-9.628a3.457,3.457,0,1,1-3.456,3.457,3.457,3.457,0,0,1,3.456-3.457" transform="translate(-490.899 -201.702)" fill="#f7f7f7"/>
      <path id="Path_9" data-name="Path 9" d="M681.695,221.955l2.258-2.283,3.272,6.024h3.1l-4.373-8.048,4.338-4.328H686.46l-4.766,4.759V207.56H678.97V225.7h2.725Z" transform="translate(-565.673 -172.926)" fill="#f7f7f7"/>
      <rect id="Rectangle_20" data-name="Rectangle 20" width="2.725" height="12.383" transform="translate(127.05 40.394)" fill="#f7f7f7"/>
      <path id="Path_10" data-name="Path 10" d="M806.236,242.669a4.6,4.6,0,0,0-4.711.155,5.745,5.745,0,0,0-.834.629V242.08H797.97v8.635c-.027.614-.027,1.256,0,1.9v1.825H800.7v-3.518c.125-2.862.949-4.964,2.261-5.773a1.886,1.886,0,0,1,1.951-.1,2.428,2.428,0,0,1,1.113,2.226v7.162h2.725v-7.162a5.143,5.143,0,0,0-2.5-4.605" transform="translate(-664.8 -201.686)" fill="#f7f7f7"/>
      <path id="Path_11" data-name="Path 11" d="M761.683,219.47a1.555,1.555,0,1,0-1.22-2.515,1.535,1.535,0,0,0-.334.959,1.589,1.589,0,0,0,.087.512,1.557,1.557,0,0,0,1.467,1.043" transform="translate(-633.291 -180.257)" fill="#f7f7f7"/>
      <path id="Path_12" data-name="Path 12" d="M885.749,254.475a6.107,6.107,0,0,0,3.472-1.068v.576a3.476,3.476,0,0,1-3.472,3.472h-.24v2.727h.24a6.206,6.206,0,0,0,6.2-6.2V242.07h-2.727v1.076a6.119,6.119,0,0,0-3.472-1.068,6.2,6.2,0,1,0,0,12.4m0-9.679a3.472,3.472,0,1,1-3.472,3.472,3.472,3.472,0,0,1,3.472-3.472" transform="translate(-732.784 -201.677)" fill="#f7f7f7"/>
      <path id="Path_13" data-name="Path 13" d="M446.091,375.416v-6.721h-2.727v1.058a6.107,6.107,0,0,0-3.466-1.063,6.2,6.2,0,1,0,4.427,10.531,8.708,8.708,0,0,0,1.168,1.717l.132.122h3.753l-1.644-1.7a5.93,5.93,0,0,1-1.644-3.94m-6.194,2.945a3.472,3.472,0,1,1,3.467-3.613v.274a3.457,3.457,0,0,1-3.466,3.337" transform="translate(-361.323 -307.169)" fill="#f7f7f7"/>
      <path id="Path_14" data-name="Path 14" d="M1020.09,368.67v6.152a3.472,3.472,0,1,1-6.945,0V368.67h-2.725v6.152a6.2,6.2,0,0,0,6.2,6.2,6.119,6.119,0,0,0,3.472-1.066v.574a3.476,3.476,0,0,1-3.472,3.472h-.24v2.727h.24a6.207,6.207,0,0,0,6.2-6.2V368.67Z" transform="translate(-841.816 -307.152)" fill="#f7f7f7"/>
      <path id="Path_15" data-name="Path 15" d="M894.548,369.232a4.6,4.6,0,0,0-4.709.157,5.957,5.957,0,0,0-1.637,1.518,4.7,4.7,0,0,0-1.725-1.669,4.6,4.6,0,0,0-4.711.157,5.628,5.628,0,0,0-.834.629V368.65H878.21v8.635c-.027.614-.027,1.257,0,1.9v1.851h2.727v-3.551c.125-2.86.948-4.964,2.259-5.773a1.889,1.889,0,0,1,1.952-.1,2.425,2.425,0,0,1,1.113,2.226v7.188h2.725v-1.684h.032l-.012-.24c-.157-3.659.688-6.423,2.263-7.394a1.886,1.886,0,0,1,1.951-.1,2.425,2.425,0,0,1,1.113,2.226v7.188h2.727v-7.188a5.146,5.146,0,0,0-2.5-4.605" transform="translate(-731.651 -307.136)" fill="#f7f7f7"/>
      <path id="Path_16" data-name="Path 16" d="M604.277,128.018a6.174,6.174,0,0,0,3.778-1.282l-1.4-2.388a3.471,3.471,0,0,1-5.573-1.168h9.391v-1.363a6.2,6.2,0,1,0-6.2,6.2m0-9.67a3.459,3.459,0,0,1,3.2,2.109h-6.389a3.459,3.459,0,0,1,3.194-2.1" transform="translate(-498.281 -96.327)" fill="#f7f7f7"/>
      <path id="Path_17" data-name="Path 17" d="M790.484,368.615a6.2,6.2,0,1,0,3.778,11.115l-1.4-2.389a3.469,3.469,0,0,1-5.573-1.168h9.393v-1.363a6.206,6.206,0,0,0-6.2-6.2m-3.194,4.839a3.474,3.474,0,0,1,6.389,0Z" transform="translate(-653.416 -307.102)" fill="#f7f7f7"/>
      <path id="Path_18" data-name="Path 18" d="M439.471,254.448a6.132,6.132,0,0,0,3.714-1.246l-1.547-2.236a3.457,3.457,0,1,1-.015-5.39l1.535-2.244a6.174,6.174,0,1,0-3.688,11.116" transform="translate(-360.984 -201.702)" fill="#f7f7f7"/>
      <path id="Path_19" data-name="Path 19" d="M534.126,378.462a3.457,3.457,0,1,1,2.151-6.156l1.537-2.246a6.174,6.174,0,1,0,.025,9.87l-1.544-2.228a3.444,3.444,0,0,1-2.169.768" transform="translate(-439.846 -307.286)" fill="#f7f7f7"/>
      <path id="Path_20" data-name="Path 20" d="M608.673,375.416v-6.721h-2.728v1.058a6.114,6.114,0,0,0-3.466-1.063,6.2,6.2,0,1,0,4.427,10.531,8.708,8.708,0,0,0,1.168,1.717l.132.122h3.758l-1.645-1.7a5.921,5.921,0,0,1-1.645-3.94m-6.194,2.945a3.472,3.472,0,1,1,3.466-3.613v.274a3.459,3.459,0,0,1-3.466,3.337" transform="translate(-496.775 -307.169)" fill="#f7f7f7"/>
      <path id="Path_21" data-name="Path 21" d="M702.675,346.8V334.34h-2.728v6.795a6.11,6.11,0,0,0-3.466-1.063,6.2,6.2,0,1,0,4.425,10.531,8.709,8.709,0,0,0,1.168,1.717l.132.122h3.758l-1.644-1.7a5.931,5.931,0,0,1-1.645-3.94m-6.194,2.945a3.472,3.472,0,1,1,3.466-3.613v.274a3.459,3.459,0,0,1-3.466,3.337" transform="translate(-575.09 -278.551)" fill="#f7f7f7"/>
    </g>
  </g>
</svg>
